<svg width="20" height="20" viewBox="0 0 20 20" fill="none" xmlns="http://www.w3.org/2000/svg">
<path d="M10 0.416672C4.475 0.416672 0 4.81667 0 10.2433C0 14.5858 2.865 18.2683 6.8375 19.5667C7.3375 19.6592 7.52083 19.355 7.52083 19.0942C7.52083 18.8608 7.5125 18.2425 7.50833 17.4233C4.72667 18.0158 4.14 16.105 4.14 16.105C3.685 14.9708 3.0275 14.6675 3.0275 14.6675C2.12167 14.0583 3.0975 14.0708 3.0975 14.0708C4.10167 14.1392 4.62917 15.0833 4.62917 15.0833C5.52083 16.5858 6.97 16.1517 7.54167 15.9008C7.63167 15.265 7.88917 14.8325 8.175 14.5867C5.95417 14.3408 3.62 13.4958 3.62 9.73084C3.62 8.65834 4.0075 7.78167 4.64917 7.09417C4.53667 6.84584 4.19917 5.84667 4.73667 4.49334C4.73667 4.49334 5.57417 4.23001 7.48667 5.50084C8.28667 5.28251 9.13667 5.17417 9.98667 5.16917C10.8367 5.17417 11.6867 5.28251 12.4867 5.50084C14.3867 4.23001 15.2242 4.49334 15.2242 4.49334C15.7617 5.84667 15.4242 6.84584 15.3242 7.09417C15.9617 7.78167 16.3492 8.65834 16.3492 9.73084C16.3492 13.5058 14.0117 14.3367 11.7867 14.5783C12.1367 14.8733 12.4617 15.4758 12.4617 16.3967C12.4617 17.7117 12.4492 18.7683 12.4492 19.0875C12.4492 19.345 12.6242 19.6525 13.1367 19.5542C17.1375 18.2642 20 14.5792 20 10.2433C20 4.81667 15.5225 0.416672 10 0.416672Z" fill="#F74700"/>
</svg>
