<svg width="20" height="20" viewBox="0 0 20 20" fill="none" xmlns="http://www.w3.org/2000/svg">
<g clip-path="url(#clip0)">
<path d="M21 4.18614C19.7419 4.24413 19.7694 4.2394 19.6272 4.2513L20.3723 2.12343C20.3723 2.12343 18.0465 2.979 17.4569 3.13205C15.9084 1.74028 13.6068 1.67878 11.9613 2.69015C10.6138 3.51856 9.89053 4.94116 10.1318 6.60394C7.50925 6.24001 5.29962 4.99686 3.55508 2.90118L3.00333 2.23848L2.59103 2.99564C2.06995 3.95238 1.89691 5.0463 2.10367 6.07582C2.18851 6.49819 2.3327 6.90103 2.53244 7.27823L2.05911 7.09482L2.00296 7.88569C1.94604 8.68908 2.21353 9.6269 2.7186 10.3941C2.86081 10.6102 3.04391 10.8475 3.276 11.0815L3.0314 11.044L3.32986 11.9502C3.72217 13.1409 4.53699 14.0621 5.59442 14.5742C4.53836 15.0223 3.68524 15.3083 2.28296 15.7696L1 16.1913L2.185 16.8392C2.63681 17.0863 4.23334 17.9113 5.81079 18.1588C9.31726 18.7088 13.2652 18.2609 15.9229 15.8672C18.1616 13.8511 18.8961 10.9831 18.7435 7.99861C18.7205 7.54679 18.8442 7.11557 19.092 6.7846C19.5884 6.1219 20.9969 4.19057 21 4.18614ZM18.155 6.08269C17.7435 6.63216 17.5373 7.33393 17.5742 8.05842C17.7282 11.0689 16.9091 13.4035 15.1396 14.9972C13.0724 16.8589 9.73825 17.5897 5.99222 17.002C5.31381 16.8957 4.61267 16.6575 4.03238 16.4196C5.20807 16.0151 6.11597 15.6545 7.58218 14.9605L9.629 13.9917L7.36917 13.8471C6.28671 13.7778 5.38538 13.2532 4.83133 12.4014C5.12552 12.3844 5.40918 12.3367 5.69162 12.258L7.84692 11.6577L5.67361 11.1255C4.61755 10.8668 4.01559 10.235 3.69653 9.75034C3.48703 9.43189 3.35016 9.10565 3.26807 8.8049C3.48596 8.86334 3.74002 8.90499 4.14972 8.94558L6.16129 9.14456L4.5675 7.90126C3.41913 7.00555 2.95892 5.65986 3.2963 4.3662C6.88028 8.0836 11.0883 7.80421 11.5119 7.90248C11.4187 6.99686 11.4163 6.99472 11.3918 6.90851C10.8494 4.99091 12.0382 4.01723 12.5744 3.68763C13.6944 2.9993 15.4722 2.89554 16.7036 4.02959C16.9695 4.27434 17.3292 4.37063 17.6658 4.28701C17.9679 4.21193 18.2159 4.13243 18.4586 4.04591L17.9533 5.48911L18.5984 5.48957C18.4767 5.65284 18.3306 5.84831 18.155 6.08269Z" fill="#F74700"/>
</g>
<defs>
<clipPath id="clip0">
<rect width="20" height="20" fill="white"/>
</clipPath>
</defs>
</svg>
